<?xml version="1.0" standalone="no"?>
<!DOCTYPE svg PUBLIC "-//W3C//DTD SVG 20010904//EN"
 "http://www.w3.org/TR/2001/REC-SVG-20010904/DTD/svg10.dtd">
<svg version="1.0" xmlns="http://www.w3.org/2000/svg"
 width="98.000000pt" height="98.000000pt" viewBox="0 0 98.000000 98.000000"
 preserveAspectRatio="xMidYMid meet">

<g transform="translate(0.000000,98.000000) scale(0.100000,-0.100000)"
fill="#000000" stroke="none">
<path d="M405 969 c-143 -21 -283 -127 -352 -267 l-38 -76 0 -136 0 -136 38
-76 c120 -244 408 -343 652 -223 190 92 300 306 265 515 -34 202 -201 369
-400 400 -73 11 -81 11 -165 -1z m169 -243 c47 -20 66 -51 66 -112 0 -40 -5
-57 -24 -77 -18 -20 -22 -29 -12 -34 44 -28 59 -108 30 -164 -23 -45 -67 -59
-184 -59 l-100 0 0 230 0 230 95 0 c59 0 108 -5 129 -14z"/>
<path d="M410 610 l0 -80 55 0 c30 0 65 5 79 11 50 23 57 103 13 134 -14 9
-45 15 -84 15 l-63 0 0 -80z"/>
<path d="M410 411 l0 -81 70 0 c85 0 110 18 110 78 0 57 -26 76 -111 80 l-69
4 0 -81z"/>
</g>
</svg>
